<mxfile host="app.diagrams.net" agent="Mozilla/5.0 (Windows NT 10.0; Win64; x64) AppleWebKit/537.36 (KHTML, like Gecko) Chrome/131.0.0.0 Safari/537.36 Edg/131.0.0.0" version="25.0.3">
  <diagram name="第 1 页" id="wzIM5UYt8_IGVO3KRIJ0">
    <mxGraphModel dx="1562" dy="857" grid="1" gridSize="10" guides="1" tooltips="1" connect="1" arrows="1" fold="1" page="1" pageScale="1" pageWidth="827" pageHeight="1169" math="0" shadow="0">
      <root>
        <mxCell id="0" />
        <mxCell id="1" parent="0" />
        <mxCell id="iQJIAASou05XWEVt0V54-1" value="" style="rounded=0;whiteSpace=wrap;html=1;fillColor=#d5e8d4;strokeColor=#82b366;" vertex="1" parent="1">
          <mxGeometry x="230" y="160" width="660" height="130" as="geometry" />
        </mxCell>
        <mxCell id="iQJIAASou05XWEVt0V54-2" value="用户交互层" style="rounded=0;whiteSpace=wrap;html=1;fillColor=#f8cecc;strokeColor=#b85450;" vertex="1" parent="1">
          <mxGeometry x="100" y="90" width="120" height="60" as="geometry" />
        </mxCell>
        <mxCell id="iQJIAASou05XWEVt0V54-3" value="功能模块层" style="rounded=0;whiteSpace=wrap;html=1;fillColor=#d5e8d4;strokeColor=#82b366;" vertex="1" parent="1">
          <mxGeometry x="100" y="160" width="120" height="130" as="geometry" />
        </mxCell>
        <mxCell id="iQJIAASou05XWEVt0V54-4" value="" style="rounded=0;whiteSpace=wrap;html=1;fillColor=#f8cecc;strokeColor=#b85450;" vertex="1" parent="1">
          <mxGeometry x="230" y="90" width="660" height="60" as="geometry" />
        </mxCell>
        <mxCell id="iQJIAASou05XWEVt0V54-5" value="用户监控界面" style="rounded=0;whiteSpace=wrap;html=1;fillColor=#ffe6cc;strokeColor=#d79b00;" vertex="1" parent="1">
          <mxGeometry x="264.5" y="100" width="280" height="40" as="geometry" />
        </mxCell>
        <mxCell id="iQJIAASou05XWEVt0V54-6" value="用户查询界面" style="rounded=0;whiteSpace=wrap;html=1;fillColor=#ffe6cc;strokeColor=#d79b00;" vertex="1" parent="1">
          <mxGeometry x="583.5" y="100" width="280" height="40" as="geometry" />
        </mxCell>
        <mxCell id="iQJIAASou05XWEVt0V54-7" value="" style="rounded=0;whiteSpace=wrap;html=1;fillColor=#dae8fc;strokeColor=#6c8ebf;" vertex="1" parent="1">
          <mxGeometry x="237.5" y="170" width="160" height="110" as="geometry" />
        </mxCell>
        <mxCell id="iQJIAASou05XWEVt0V54-8" value="飞行状态监控" style="rounded=0;whiteSpace=wrap;html=1;fillColor=#F19C99;strokeColor=#d79b00;" vertex="1" parent="1">
          <mxGeometry x="257.5" y="200" width="120" height="30" as="geometry" />
        </mxCell>
        <mxCell id="iQJIAASou05XWEVt0V54-9" value="任务进度跟踪 " style="rounded=0;whiteSpace=wrap;html=1;fillColor=#F19C99;strokeColor=#d79b00;" vertex="1" parent="1">
          <mxGeometry x="257.5" y="240" width="120" height="30" as="geometry" />
        </mxCell>
        <mxCell id="iQJIAASou05XWEVt0V54-10" value="&lt;b&gt;&lt;font style=&quot;font-size: 14px;&quot;&gt;实时监控模块&lt;/font&gt;&lt;/b&gt;" style="text;html=1;align=center;verticalAlign=middle;resizable=0;points=[];autosize=1;strokeColor=none;fillColor=none;" vertex="1" parent="1">
          <mxGeometry x="264.5" y="170" width="110" height="30" as="geometry" />
        </mxCell>
        <mxCell id="iQJIAASou05XWEVt0V54-11" value="" style="rounded=0;whiteSpace=wrap;html=1;fillColor=#dae8fc;strokeColor=#6c8ebf;" vertex="1" parent="1">
          <mxGeometry x="400.5" y="170" width="160" height="110" as="geometry" />
        </mxCell>
        <mxCell id="iQJIAASou05XWEVt0V54-12" value="数据采集与过滤" style="rounded=0;whiteSpace=wrap;html=1;fillColor=#F19C99;strokeColor=#d79b00;" vertex="1" parent="1">
          <mxGeometry x="420.5" y="200" width="120" height="30" as="geometry" />
        </mxCell>
        <mxCell id="iQJIAASou05XWEVt0V54-13" value="数据存储与优化 " style="rounded=0;whiteSpace=wrap;html=1;fillColor=#F19C99;strokeColor=#d79b00;" vertex="1" parent="1">
          <mxGeometry x="420.5" y="240" width="120" height="30" as="geometry" />
        </mxCell>
        <mxCell id="iQJIAASou05XWEVt0V54-14" value="&lt;b&gt;&lt;font style=&quot;font-size: 14px;&quot;&gt;状态数据采集与存储模块&lt;/font&gt;&lt;/b&gt;" style="text;html=1;align=center;verticalAlign=middle;resizable=0;points=[];autosize=1;strokeColor=none;fillColor=none;" vertex="1" parent="1">
          <mxGeometry x="390.5" y="170" width="180" height="30" as="geometry" />
        </mxCell>
        <mxCell id="iQJIAASou05XWEVt0V54-15" value="" style="rounded=0;whiteSpace=wrap;html=1;fillColor=#dae8fc;strokeColor=#6c8ebf;" vertex="1" parent="1">
          <mxGeometry x="563.5" y="170" width="160" height="110" as="geometry" />
        </mxCell>
        <mxCell id="iQJIAASou05XWEVt0V54-16" value="历史数据查询" style="rounded=0;whiteSpace=wrap;html=1;fillColor=#F19C99;strokeColor=#d79b00;" vertex="1" parent="1">
          <mxGeometry x="583.5" y="200" width="120" height="30" as="geometry" />
        </mxCell>
        <mxCell id="iQJIAASou05XWEVt0V54-17" value="数据分析与展示 " style="rounded=0;whiteSpace=wrap;html=1;fillColor=#F19C99;strokeColor=#d79b00;" vertex="1" parent="1">
          <mxGeometry x="583.5" y="240" width="120" height="30" as="geometry" />
        </mxCell>
        <mxCell id="iQJIAASou05XWEVt0V54-18" value="&lt;b&gt;&lt;font style=&quot;font-size: 14px;&quot;&gt;用户查询与分析模块&lt;/font&gt;&lt;/b&gt;" style="text;html=1;align=center;verticalAlign=middle;resizable=0;points=[];autosize=1;strokeColor=none;fillColor=none;" vertex="1" parent="1">
          <mxGeometry x="570.5" y="170" width="150" height="30" as="geometry" />
        </mxCell>
        <mxCell id="iQJIAASou05XWEVt0V54-19" value="" style="rounded=0;whiteSpace=wrap;html=1;fillColor=#dae8fc;strokeColor=#6c8ebf;" vertex="1" parent="1">
          <mxGeometry x="726.5" y="170" width="160" height="110" as="geometry" />
        </mxCell>
        <mxCell id="iQJIAASou05XWEVt0V54-20" value="实时异常检测" style="rounded=0;whiteSpace=wrap;html=1;fillColor=#F19C99;strokeColor=#d79b00;" vertex="1" parent="1">
          <mxGeometry x="746.5" y="200" width="120" height="30" as="geometry" />
        </mxCell>
        <mxCell id="iQJIAASou05XWEVt0V54-21" value="异常处理与恢复 " style="rounded=0;whiteSpace=wrap;html=1;fillColor=#F19C99;strokeColor=#d79b00;" vertex="1" parent="1">
          <mxGeometry x="746.5" y="240" width="120" height="30" as="geometry" />
        </mxCell>
        <mxCell id="iQJIAASou05XWEVt0V54-22" value="&lt;b&gt;&lt;font style=&quot;font-size: 14px;&quot;&gt;异常告警与恢复模块&lt;/font&gt;&lt;/b&gt;" style="text;html=1;align=center;verticalAlign=middle;resizable=0;points=[];autosize=1;strokeColor=none;fillColor=none;" vertex="1" parent="1">
          <mxGeometry x="733.5" y="170" width="150" height="30" as="geometry" />
        </mxCell>
        <mxCell id="iQJIAASou05XWEVt0V54-23" value="技术支持层" style="rounded=0;whiteSpace=wrap;html=1;fillColor=#e1d5e7;strokeColor=#9673a6;" vertex="1" parent="1">
          <mxGeometry x="100" y="300" width="120" height="130" as="geometry" />
        </mxCell>
        <mxCell id="iQJIAASou05XWEVt0V54-24" value="" style="rounded=0;whiteSpace=wrap;html=1;fillColor=#e1d5e7;strokeColor=#9673a6;" vertex="1" parent="1">
          <mxGeometry x="234.5" y="300" width="655.5" height="130" as="geometry" />
        </mxCell>
        <mxCell id="iQJIAASou05XWEVt0V54-25" value="" style="rounded=0;whiteSpace=wrap;html=1;fillColor=#f5f5f5;fontColor=#333333;strokeColor=#666666;" vertex="1" parent="1">
          <mxGeometry x="247" y="310" width="303" height="50" as="geometry" />
        </mxCell>
        <mxCell id="iQJIAASou05XWEVt0V54-26" value="&lt;b&gt;&lt;font style=&quot;font-size: 14px;&quot;&gt;数据存储&lt;/font&gt;&lt;/b&gt;" style="text;html=1;align=center;verticalAlign=middle;resizable=0;points=[];autosize=1;strokeColor=none;fillColor=none;" vertex="1" parent="1">
          <mxGeometry x="242" y="320" width="80" height="30" as="geometry" />
        </mxCell>
        <mxCell id="iQJIAASou05XWEVt0V54-27" value="MongoDB" style="rounded=0;whiteSpace=wrap;html=1;fillColor=#A9C4EB;" vertex="1" parent="1">
          <mxGeometry x="326" y="320" width="88" height="30" as="geometry" />
        </mxCell>
        <mxCell id="iQJIAASou05XWEVt0V54-28" value="Redis" style="rounded=0;whiteSpace=wrap;html=1;fillColor=#A9C4EB;" vertex="1" parent="1">
          <mxGeometry x="436.5" y="320" width="88" height="30" as="geometry" />
        </mxCell>
        <mxCell id="iQJIAASou05XWEVt0V54-29" value="" style="rounded=0;whiteSpace=wrap;html=1;fillColor=#f5f5f5;fontColor=#333333;strokeColor=#666666;" vertex="1" parent="1">
          <mxGeometry x="247" y="370" width="303" height="50" as="geometry" />
        </mxCell>
        <mxCell id="iQJIAASou05XWEVt0V54-30" value="&lt;b&gt;&lt;font style=&quot;font-size: 14px;&quot;&gt;机器学习&lt;/font&gt;&lt;/b&gt;" style="text;html=1;align=center;verticalAlign=middle;resizable=0;points=[];autosize=1;strokeColor=none;fillColor=none;" vertex="1" parent="1">
          <mxGeometry x="242" y="380" width="80" height="30" as="geometry" />
        </mxCell>
        <mxCell id="iQJIAASou05XWEVt0V54-31" value="随机森林" style="rounded=0;whiteSpace=wrap;html=1;fillColor=#A9C4EB;" vertex="1" parent="1">
          <mxGeometry x="326" y="380" width="88" height="30" as="geometry" />
        </mxCell>
        <mxCell id="iQJIAASou05XWEVt0V54-32" value="SVM" style="rounded=0;whiteSpace=wrap;html=1;fillColor=#A9C4EB;" vertex="1" parent="1">
          <mxGeometry x="436.5" y="380" width="88" height="30" as="geometry" />
        </mxCell>
        <mxCell id="iQJIAASou05XWEVt0V54-33" value="" style="rounded=0;whiteSpace=wrap;html=1;fillColor=#f5f5f5;fontColor=#333333;strokeColor=#666666;" vertex="1" parent="1">
          <mxGeometry x="572.5" y="310" width="303" height="50" as="geometry" />
        </mxCell>
        <mxCell id="iQJIAASou05XWEVt0V54-34" value="&lt;b&gt;&lt;font style=&quot;font-size: 14px;&quot;&gt;可视化&lt;/font&gt;&lt;/b&gt;" style="text;html=1;align=center;verticalAlign=middle;resizable=0;points=[];autosize=1;strokeColor=none;fillColor=none;" vertex="1" parent="1">
          <mxGeometry x="572.5" y="320" width="70" height="30" as="geometry" />
        </mxCell>
        <mxCell id="iQJIAASou05XWEVt0V54-35" value="Grafana" style="rounded=0;whiteSpace=wrap;html=1;fillColor=#A9C4EB;" vertex="1" parent="1">
          <mxGeometry x="651.5" y="320" width="88" height="30" as="geometry" />
        </mxCell>
        <mxCell id="iQJIAASou05XWEVt0V54-36" value="Google Maps API" style="rounded=0;whiteSpace=wrap;html=1;fillColor=#A9C4EB;" vertex="1" parent="1">
          <mxGeometry x="762" y="320" width="88" height="30" as="geometry" />
        </mxCell>
        <mxCell id="iQJIAASou05XWEVt0V54-37" value="" style="rounded=0;whiteSpace=wrap;html=1;fillColor=#f5f5f5;fontColor=#333333;strokeColor=#666666;" vertex="1" parent="1">
          <mxGeometry x="572.5" y="370" width="303" height="50" as="geometry" />
        </mxCell>
        <mxCell id="iQJIAASou05XWEVt0V54-38" value="&lt;b&gt;&lt;font style=&quot;font-size: 14px;&quot;&gt;监控与日志&lt;/font&gt;&lt;/b&gt;" style="text;html=1;align=center;verticalAlign=middle;resizable=0;points=[];autosize=1;strokeColor=none;fillColor=none;" vertex="1" parent="1">
          <mxGeometry x="568.75" y="380" width="90" height="30" as="geometry" />
        </mxCell>
        <mxCell id="iQJIAASou05XWEVt0V54-39" value="Prometheus" style="rounded=0;whiteSpace=wrap;html=1;fillColor=#A9C4EB;" vertex="1" parent="1">
          <mxGeometry x="651.5" y="380" width="88" height="30" as="geometry" />
        </mxCell>
        <mxCell id="iQJIAASou05XWEVt0V54-40" value="Logstash" style="rounded=0;whiteSpace=wrap;html=1;fillColor=#A9C4EB;" vertex="1" parent="1">
          <mxGeometry x="762" y="380" width="88" height="30" as="geometry" />
        </mxCell>
      </root>
    </mxGraphModel>
  </diagram>
</mxfile>
